<?xml version="1.0" encoding="utf-8"?>
<!-- Generator: Adobe Illustrator 26.2.1, SVG Export Plug-In . SVG Version: 6.00 Build 0)  -->
<svg version="1.1" id="_x2018_ëîé_x5F_1" xmlns="http://www.w3.org/2000/svg" xmlns:xlink="http://www.w3.org/1999/xlink"
	 x="0px" y="0px" viewBox="0 0 559.77 559.77" style="enable-background:new 0 0 559.77 559.77;" xml:space="preserve">
<style type="text/css">
	.st0{fill:#298D96;}
</style>
<g id="green">
	<path class="st0" d="M277.81,0.01C123.24,1.15-1.14,127.39,0.01,281.96s127.38,278.95,281.95,277.8s278.95-127.38,277.8-281.95
		S432.38-1.14,277.81,0.01z M281.31,472.44c-27.79,0.21-54.25-5.49-78.19-15.91l-75.32,29.05l29.24-57.41
		c-42.22-35.01-69.28-87.73-69.71-146.87c-0.79-106.35,84.78-193.2,191.13-193.99s193.2,84.78,193.99,191.13
		C473.23,384.8,387.66,471.65,281.31,472.44z"/>
	<g>
		<path class="st0" d="M194.49,222.91c-0.08-10.76,3.29-21.69,10.12-32.79c6.83-11.1,16.84-20.32,30.04-27.67
			c13.2-7.35,28.64-11.09,46.31-11.22c16.43-0.12,30.95,2.8,43.57,8.77s22.39,14.14,29.33,24.51c6.93,10.37,10.44,21.67,10.53,33.91
			c0.07,9.63-1.82,18.08-5.67,25.36c-3.85,7.28-8.45,13.57-13.79,18.88c-5.34,5.31-14.93,14.24-28.78,26.81
			c-3.83,3.54-6.89,6.65-9.19,9.33c-2.3,2.68-4.01,5.13-5.13,7.35c-1.12,2.22-1.98,4.43-2.58,6.65c-0.61,2.21-1.51,6.1-2.72,11.66
			c-2.07,11.8-8.76,17.74-20.09,17.82c-5.89,0.04-10.86-1.85-14.91-5.67c-4.05-3.82-6.1-9.53-6.16-17.12
			c-0.07-9.52,1.34-17.77,4.23-24.76c2.89-6.99,6.76-13.14,11.59-18.44c4.83-5.3,11.36-11.61,19.57-18.92
			c7.2-6.4,12.41-11.22,15.61-14.48c3.2-3.25,5.9-6.87,8.08-10.85c2.18-3.98,3.25-8.29,3.22-12.94
			c-0.07-9.06-3.49-16.68-10.28-22.87c-6.79-6.18-15.5-9.23-26.15-9.15c-12.46,0.09-21.61,3.3-27.46,9.64s-10.76,15.63-14.75,27.89
			c-3.76,12.83-11.02,19.28-21.78,19.36c-6.34,0.05-11.71-2.15-16.11-6.59S194.53,228.12,194.49,222.91z M278.8,408.53
			c-6.91,0.05-12.96-2.14-18.15-6.58c-5.19-4.44-7.81-10.68-7.87-18.72c-0.05-7.14,2.39-13.16,7.34-18.07
			c4.95-4.91,11.05-7.39,18.3-7.44c7.14-0.05,13.16,2.34,18.07,7.17c4.91,4.84,7.39,10.82,7.44,17.96
			c0.06,7.93-2.44,14.18-7.51,18.75C291.36,406.17,285.48,408.48,278.8,408.53z"/>
	</g>
</g>
</svg>
