<?xml version="1.0" encoding="utf-8"?>
<!-- Generator: Adobe Illustrator 26.2.1, SVG Export Plug-In . SVG Version: 6.00 Build 0)  -->
<svg version="1.1" id="_x2018_ëîé_x5F_1" xmlns="http://www.w3.org/2000/svg" xmlns:xlink="http://www.w3.org/1999/xlink"
	 x="0px" y="0px" viewBox="0 0 559.77 559.77" style="enable-background:new 0 0 559.77 559.77;" xml:space="preserve">
<style type="text/css">
	.st0{fill:#FF0000;}
</style>
<g id="green_00000130617421033820745030000012849941081922927771_">
	<path class="st0" d="M277.81,0.01C123.24,1.15-1.14,127.39,0.01,281.96s127.38,278.95,281.95,277.8s278.95-127.38,277.8-281.95
		S432.38-1.14,277.81,0.01z M281.31,472.44c-27.79,0.21-54.25-5.49-78.19-15.91l-75.32,29.05l29.24-57.41
		c-42.22-35.01-69.28-87.73-69.71-146.87c-0.79-106.35,84.78-193.2,191.13-193.99s193.2,84.78,193.99,191.13
		C473.23,384.8,387.66,471.65,281.31,472.44z"/>
	<g>
		<path class="st0" d="M278.8,408.53c-6.91,0.05-12.96-2.14-18.15-6.58c-5.19-4.44-7.81-10.68-7.87-18.72
			c-0.05-7.14,2.39-13.16,7.34-18.07c4.95-4.91,11.05-7.39,18.3-7.44c7.14-0.05,13.16,2.34,18.07,7.17
			c4.91,4.84,7.39,10.82,7.44,17.96c0.06,7.93-2.44,14.18-7.51,18.75C291.36,406.17,285.48,408.48,278.8,408.53z"/>
	</g>
</g>
<g>
	<path class="st0" d="M278.04,340.5c-12.43,0.09-22.57-9.91-22.67-22.33l-1.09-146.81c-0.09-12.43,9.91-22.57,22.33-22.67
		s22.57,9.91,22.67,22.33l1.09,146.81C300.46,330.26,290.46,340.4,278.04,340.5z"/>
</g>
</svg>
