<?xml version="1.0" encoding="utf-8"?>
<!-- Generator: Adobe Illustrator 26.2.1, SVG Export Plug-In . SVG Version: 6.00 Build 0)  -->
<svg version="1.1" id="_x2018_ëîé_x5F_1" xmlns="http://www.w3.org/2000/svg" xmlns:xlink="http://www.w3.org/1999/xlink"
	 x="0px" y="0px" viewBox="0 0 559.77 559.77" style="enable-background:new 0 0 559.77 559.77;" xml:space="preserve">
<style type="text/css">
	.st0{fill:#09C90D;}
</style>
<g id="green_00000007424209002008188740000002666567157078621852_">
	<path class="st0" d="M279.88,0C125.31,0,0,125.31,0,279.88s125.31,279.88,279.88,279.88s279.88-125.31,279.88-279.88
		S434.46,0,279.88,0z M279.88,472.45c-27.79,0-54.21-5.89-78.07-16.49l-75.53,28.49l29.66-57.19
		c-41.96-35.32-68.62-88.24-68.62-147.38c0-106.35,86.21-192.57,192.57-192.57s192.57,86.21,192.57,192.57
		C472.45,386.23,386.23,472.45,279.88,472.45z"/>
	<g>
		<path class="st0" d="M259.11,393.09l-85.38-64.63c-11.01-8.33-13.18-24.01-4.84-35.02c8.33-11.01,24.01-13.18,35.02-4.84
			l44.57,33.74l100.14-138.9c8.07-11.2,23.7-13.73,34.9-5.66c11.2,8.07,13.73,23.7,5.66,34.9L259.11,393.09z"/>
	</g>
</g>
</svg>
