<?xml version="1.0" encoding="UTF-8"?><svg xmlns="http://www.w3.org/2000/svg" viewBox="0 0 523.91 517.79"><defs><style>.d{fill:#298d96;}.e{fill:#76c7c9;}.f{fill:#acdbdf;}</style></defs><g id="a"/><g id="b"/><g id="c"><g><polygon class="f" points="109.77 204.12 53.74 258.97 91.02 293.23 156.9 204.12 109.77 204.12"/><polygon class="e" points="143.06 238.08 97.66 300.38 159.96 361.15 198.76 238.08 143.06 238.08"/><polygon class="f" points="197.21 274.59 168.13 368.81 256.98 456.12 256.98 274.59 197.21 274.59"/><polygon class="e" points="343.48 333.57 266.17 333.57 266.17 454.08 354 368.29 343.48 333.57"/><polygon class="f" points="401.2 265.66 356.88 204.64 315.06 204.64 334.61 265.66 401.2 265.66"/><polygon class="f" points="407.69 274.59 337.47 274.59 364.21 358.08 425.49 299.1 407.69 274.59"/><polygon class="e" points="447.53 236.55 389.49 236.55 431.62 293.23 468.89 256.46 447.53 236.55"/><polygon class="e" points="314.55 238.08 266.17 238.08 266.17 324.64 340.77 324.64 314.55 238.08"/><path class="d" d="M261.05,502.93L15.78,257.66l119.07-116.58h250.33l118.42,116.93-242.55,244.92ZM41.37,257.8l219.61,219.61,217.14-219.25-100.34-99.07H142.19l-100.82,98.71Z"/><polygon class="f" points="183.07 168.72 145.94 168.72 118.9 195.19 163.02 195.19 163.02 195.84 183.07 168.72"/><polygon class="e" points="193.61 168.72 149.57 229.15 201.58 229.15 220.63 168.72 193.61 168.72"/><polygon class="f" points="229.88 168.72 199.96 265.66 256.98 265.66 256.98 168.72 229.88 168.72"/><polygon class="e" points="266.17 168.72 266.17 229.15 311.84 229.15 293.54 168.72 266.17 168.72"/><polygon class="f" points="303.56 168.72 312.2 195.7 350.39 195.7 330.8 168.72 303.56 168.72"/><polygon class="e" points="339.09 168.72 382.85 227.61 437.94 227.61 374.77 168.72 339.09 168.72"/></g><path class="d" d="M433.11,19.91h-84.25c-.32,0-.6,.03-.89,.05-.3-.02-.57-.05-.89-.05h-99.74c-.17,0-.3,.02-.46,.03-.16,0-.3-.03-.46-.03h-28.15c-4.91,0-6.8,1.93-6.8,6.32V90.85l-10.96-22.12c-2.08-4.04-5.1-5.44-10.01-5.44h-7.93c-4.91,0-7.93,1.4-10.01,5.44l-10.96,22.12V26.24c0-4.39-2.08-6.32-6.8-6.32h-29.09c-4.72,0-6.8,1.93-6.8,6.32V94.01c0,7.55,0,13.17,3.4,21.77l9.45,24.23c1.32,3.69,4.16,6.32,8.31,6.32h24.93c3.97,0,6.8-1.76,7.93-5.27l8.88-28.62c.75-2.28,1.89-2.99,3.4-2.99h1.7c1.51,0,2.65,.7,3.4,2.99l8.69,28.62c1.13,3.69,4.54,5.27,8.69,5.27h25.12c3.97,0,6.23-2.81,7.56-6.32l9.45-23.88c3.4-8.6,3.4-14.22,3.4-21.77V53.8h21.89v86.21c0,4.39,2.08,6.32,6.8,6.32h30.6c4.72,0,6.8-1.93,6.8-6.32V53.8h22.75v86.21c0,4.39,2.08,6.32,6.8,6.32h29.28c4.72,0,6.8-1.93,6.8-6.32v-34.59h32.87c4.72,0,6.8-1.93,6.8-6.32v-21.07c0-4.39-2.08-6.32-6.8-6.32h-32.87v-18.26h48.17c4.72,0,6.8-1.93,6.8-6.32V26.24c0-4.39-2.08-6.32-6.8-6.32Z"/></g></svg>